# xmcd
#
# Track frame offsets: 
#        150
#        16026
#        28194
#        43131
#        60519
#        82480
#        99252
#        118459
#        136066
#        150421
#        168675
#        185398
#        203126
#        219609
#        239880
#        259428
#        274040
#
# Disc length: 3920 seconds
#
# Revision: 0
# Processed by: cddbd v1.5.2PL0 Copyright (c) Steve Scherf et al.
# Submitted via: ExactAudioCopyFreeDBPlugin 1.0
#
DISCID=fd0f4e11
DTITLE=Various Artist - Acoustic Singer Songwriter Disc 2
DYEAR=2015
DGENRE=Acoustic
TTITLE0=James Blunt - 1973
TTITLE1=José Gonzálezv - Heartbeats
TTITLE2=Katie Melua - Nine Million Bicycles
TTITLE3=Jewel - You Were Meant For Me
TTITLE4=Glen Hansard and Marketa Irglova - Falling Slowly
TTITLE5=Gabrielle Aplin - Please Don't’ Say You Love Me (Piano Version
TTITLE5=)
TTITLE6=Greg Holden - Boys In The Street
TTITLE7=Sara Bareilles - Gravity
TTITLE8=Death Cab For Cutie - I Will Follow You Into The Dark
TTITLE9=Luke Sital-Singh - Nothing Stays The Same
TTITLE10=M2M  - The Day You Went Away 
TTITLE11=Lene Marlin - Sitting Down Here
TTITLE12=Hope feat. Jason Mraz - Love Love Love
TTITLE13=Jason Reeves - Someone Somewhere
TTITLE14=Radiohead - Creep (Acoustic Version)
TTITLE15=Avalanche City - Love Love Love
TTITLE16=Binocular - Deep
EXTD=
EXTT0=
EXTT1=
EXTT2=
EXTT3=
EXTT4=
EXTT5=
EXTT6=
EXTT7=
EXTT8=
EXTT9=
EXTT10=
EXTT11=
EXTT12=
EXTT13=
EXTT14=
EXTT15=
EXTT16=
PLAYORDER=
